.
 
http://www.scenetime.com    -   SceneTime [ We been having it ] !!!


How come you press harder on a remote control when you know the battery is dead? so you better seed to get speed ;)

        Seed back for speed


...................................NFO:.................................................[img]http://leetleech.org/images/43057295162203217549.jpg[/img]




[color=blue]#######################################################################[/color]
[color=#99FF00][b]General:[/b][/color]
[color=blue]#######################################################################[/color]
[b][color=#00FF00]
Complete name                    : Love Ranch 2010 DVDRIP XVID AC3 - SCRON.avi
Format                           : AVI
Format/Info                      : Audio Video Interleave
Format profile                   : OpenDML
Format settings                  : rec
File size                        : 1.36 GiB
Duration                         : 1h 53mn
Overall bit rate                 : 1 725 Kbps 


[/color][/b]
[color=blue]#######################################################################[/color]
[color=#FFFF00][b]Video:[/b][/color]
[color=blue]#######################################################################[/color]
[b][color=#00FF00]
ID                               : 0
Format                           : MPEG-4 Visual
Format profile                   : Advanced Simple@L5
Format settings, BVOP            : 2
Format settings, QPel            : No
Format settings, GMC             : No warppoints
Format settings, Matrix          : Default (H.263)
Codec ID                         : XVID
Codec ID/Hint                    : XviD
Duration                         : 1h 53mn
Bit rate                         : 1 272 Kbps
Width                            : 720 pixels
Height                           : 400 pixels
Display aspect ratio             : 16:9
Frame rate                       : 25.000 fps
Color space                      : YUV
Chroma subsampling               : 4:2:0
Bit depth                        : 8 bits
Scan type                        : Progressive
Compression mode                 : Lossy
Bits/(Pixel*Frame)               : 0.177
Stream size                      : 1.01 GiB (74%)

[/color][/b]

[color=blue]#######################################################################[/color]
[color=#0000FF][b]Audio 1:[/b][/color]
[color=blue]#######################################################################[/color]
[b][color=#00FF00]
ID                               : 1
Format                           : AC-3
Format/Info                      : Audio Coding 3
Mode extension                   : CM (complete main)
Codec ID                         : 2000
Duration                         : 1h 53mn
Bit rate mode                    : Constant
Bit rate                         : 448 Kbps
Channel(s)                       : 6 channels
Channel positions                : Front: L C R, Side: L R, LFE
Sampling rate                    : 48.0 KHz
Bit depth                        : 16 bits
Compression mode                 : Lossy
Stream size                      : 363 MiB (26%)
Alignment                        : Aligned on interleaves
Interleave, duration             : 64 ms (1.60 video frames)
Interleave, preload duration     : 192 ms
[/color][/b]


[color=blue]#######################################################################[/color]
[color=red][b]Cast:[/b][/color]
[color=blue]#######################################################################[/color]
[color=red]
Helen Mirren 	Grace Bontempo 
Joe Pesci   Charlie Bontempo 
Sergio Peris-Mencheta 	Armando Bruza 
Gina Gershon   Irene 
Taryn Manning 	Mallory 
Scout Taylor-Compton 	Christina 
Ling Bai   Samantha 
Elise Neal   Alana 
Bryan Cranston 	James Pettis 
Rick Gomez   Tom Macy 
M.C. Gainey  Warren Stamp 
Gil Birmingham 	Johnny Cortez
Emily Rios   Muneca 
Melora Walters 	Janelle 
Raoul Trujillo 	Hernan Prado  [/color]

[color=#FFFF00]
SOURCE
Video : Love.Ranch.2010.PAL.Retail.NL.Subs.DMT
Audio : Love.Ranch.2010.PAL.Retail.NL.Subs.DMT

IMDB : http://www.imdb.com/title/tt1125929/ [/color]


[b][size=2][color=#00CC00]SCR0N is looking for silver supplier,cammers,syncers,Audio and anymore stuff.....
If yall got anything to offer...holler us at scron@hushmail.com[/b][/size][/color] 


SCREENS:

[img]http://leetleech.org/images/65397792004179447364.jpg[/img]
[img]http://leetleech.org/images/75874317305318600121.jpg[/img]
[img]http://leetleech.org/images/16208451267694969453.jpg[/img]
[img]http://leetleech.org/images/19245331987125650622.jpg[/img]
[img]http://leetleech.org/images/45678051683229292210.jpg[/img]
[img]http://leetleech.org/images/41100059026323572908.jpg[/img]
[img]http://leetleech.org/images/92314120123220122813.jpg[/img]